<svg width="111" height="100" viewBox="0 0 111 100" fill="none" xmlns="http://www.w3.org/2000/svg">
<path d="M30.0481 13.1324C28.5404 13.1324 27.3557 13.3477 26.4941 13.7783C25.7043 14.2088 25.1299 15.1776 24.7709 16.6846C24.4837 18.1916 24.3401 20.5956 24.3401 23.8967V34.4456C24.3401 37.1726 23.9093 39.5407 23.0477 41.5501C22.2579 43.4876 21.3245 45.0664 20.2475 46.2863C19.1705 47.5063 18.1653 48.4392 17.2319 49.085C18.0217 49.6591 18.9551 50.5562 20.0321 51.7761C21.1809 52.9243 22.1861 54.3595 23.0477 56.0818C23.9093 57.7323 24.3401 59.5981 24.3401 61.6792V74.5963C24.3401 77.8256 24.4837 80.1938 24.7709 81.7008C25.1299 83.2078 25.7043 84.1765 26.4941 84.6071C27.3557 85.0377 28.5404 85.253 30.0481 85.253H34.033V98.3854H25.5248C23.5144 98.3854 21.504 98.3495 19.4936 98.2777C17.555 98.206 15.76 97.8113 14.1086 97.0937C12.4572 96.4478 11.1289 95.192 10.1237 93.3262C9.19035 91.5321 8.72366 88.9128 8.72366 85.4682V67.7072C8.72366 65.5544 8.40056 63.545 7.75436 61.6792C7.10816 59.7417 6.13887 58.1629 4.84648 56.943C3.55408 55.723 1.93859 55.113 0 55.113V42.6265C1.93859 42.5547 3.55408 41.9447 4.84648 40.7966C6.13887 39.5766 7.10816 38.0337 7.75436 36.1679C8.40056 34.2304 8.72366 32.1852 8.72366 30.0323V13.0248C8.72366 9.5802 9.19035 6.96089 10.1237 5.16685C11.0571 3.37281 12.3136 2.11698 13.8932 1.39936C15.5446 0.68174 17.3755 0.287048 19.3859 0.215282C21.3963 0.0717617 23.4426 0 25.5248 0H34.033V13.1324H30.0481ZM110.345 50.0538C110.345 57.3735 109.447 64.2268 107.652 70.6136C105.929 77.0004 103.703 82.6695 100.975 87.6211C98.2466 92.6444 95.3387 96.7707 92.2513 100L79.8659 94.2949C82.6661 91.0657 85.179 87.2623 87.4048 82.8848C89.6306 78.5791 91.3897 73.6993 92.6821 68.2454C93.9745 62.7198 94.6207 56.6559 94.6207 50.0538C94.6207 43.4517 93.9745 37.4238 92.6821 31.9699C91.3897 26.4442 89.6306 21.5285 87.4048 17.2228C85.179 12.8454 82.6661 9.07787 79.8659 5.92035L92.2513 0.107641C95.3387 3.33693 98.2466 7.46323 100.975 12.4865C103.703 17.5099 105.929 23.2149 107.652 29.6017C109.447 35.9168 110.345 42.7341 110.345 50.0538Z" fill="#90A1FF"/>
</svg>
